<svg width="48" height="48" viewBox="0 0 48 48" fill="none" xmlns="http://www.w3.org/2000/svg">
<path fill-rule="evenodd" clip-rule="evenodd" d="M0 47.9996L14.5324 8.30091C16.3764 3.66604 19.8144 1.04239 24.3846 0.966543V0.964844L24.4868 0.965269L24.5892 0.964844V0.966543C29.1594 1.04239 32.5974 3.66604 34.4415 8.30091L48.9738 47.9996L39.9749 44.8791L27.5606 10.9668C26.8051 9.09125 25.9325 8.41594 24.4868 8.3862C23.0411 8.41594 22.1687 9.09125 21.4132 10.9668L8.99897 44.8791L0 47.9996ZM30.8102 32.8832C30.8102 36.3508 28.0175 39.162 24.5722 39.162C21.1272 39.162 18.3344 36.3508 18.3344 32.8832C18.3344 29.4155 21.1272 26.6045 24.5722 26.6045C28.0175 26.6045 30.8102 29.4155 30.8102 32.8832Z" fill="#3692FE"/>
</svg>