<svg xmlns="http://www.w3.org/2000/svg" width="2000" height="1990.18" viewBox="0 0 2000 1990.18"><g fill="#89e1af"><path d="m1507.87 54.29c75.77-32.37 157.05-57.83 240.35-53.89 90.51-.89 179.23 52.7 219.88 133.69 49.72 92.6 34.61 204.17.29 299.23-37.21 100-90.88 193.15-148.72 282.63-8 12.95-15 26.49-21.73 40.19-38.78-132.87-111.58-256-210.73-352.75-92.15-93.56-207.74-163-332.5-203.65 76.75-60.37 164.06-106.14 253.16-145.45"/><path d="m1356.76 733.88c49.58 69.45 80.91 152.67 82.92 238.34 6 109.2-31.11 220-102.49 303-87.17 105.85-226.28 165.7-363 156.76-83.44-6.25-167.93-32.75-232.83-86.94 226.56-180.7 428.42-390.31 615.4-611.16"/><path d="m204.22 1232.6c37.59 126.54 107.33 242.58 198.36 337.86 97.74 101.15 221.15 177.3 356.17 217.42-55.75 31.63-107.85 69.22-164.75 98.77-79.05 44-164.06 78-252.64 97.37-75.55 12.72-158.91 8-224.19-36-59.92-37.07-101.08-101-112.4-170.31-15.48-88.57 9.31-178.19 41.46-260.22 39.71-101.71 101.42-192.3 157.99-284.89"/></g><path d="M576.46,276.41c201.35-121.4,455-148.35,678.25-76.67,124.76,40.64,240.35,110.09,332.5,203.65-70.34,113.74-141.72,228.44-233.42,326.4-66-89.62-167.48-152.07-277-171.5-90.73-15.11-186.6-3.42-269,38.34C692.58,652,604.23,760.09,573.64,884.24c-28.36,110.54-11.54,232.09,47,330.27,29.18,52.25,72.5,94.38,117.16,133.31-76.37,63-156.16,122-240.27,174.33-29.77,19.57-61.11,36.84-94.91,48.31-91-95.28-160.77-211.32-198.36-337.86-49.65-162.94-46.9-341.58,6.62-503.18C273.14,541,405.56,377.12,576.46,276.41Z" fill="#1d3245"/><path d="m1587.21 403.39c99.15 96.77 172 219.88 210.73 352.75 77 254.42 22.25 545.16-145.3 752.24-132.19 168.52-332.05 282.48-544.79 308.75-116.64 14.29-236.85 6.33-349.1-29.25-135-40.12-258.43-116.27-356.17-217.42 33.8-11.47 65.14-28.74 94.91-48.31 84.11-52.33 163.9-111.28 240.27-174.33l3.58-2.83c64.9 54.19 149.39 80.69 232.83 86.94 136.74 8.94 275.85-50.91 363-156.76 71.38-82.92 108.45-193.75 102.49-303-2-85.67-33.34-168.89-82.92-238.34l-3-4.09c91.75-97.91 163.13-212.61 233.47-326.35" fill="#1b7e6c"/></svg>